# xmcd
#
# Track frame offsets:
#	150
#	13381
#	27208
#	53905
#	75020
#	104915
#	137846
#	167236
#	190905
#	212714
#	244136
#	274152
#	293498
#	329489
#
# Disc length: 4719 seconds
#
# Revision: 1
# Processed by: cddbd v1.5.2PL0 Copyright (c) Steve Scherf et al.
# Submitted via: audiograbber 1.83.01
#
DISCID=cd126d0e
DTITLE=Various Artist - Techno Charts 2003.1
DYEAR=2003
DGENRE=Techno
TTITLE0=Kolja Beckmann - Eternal Peace
TTITLE1=Groovelikers - Now (Listen...Bass!)
TTITLE2=Mug O'Duncan - Celtic Fire (Mug's Hardstyle Experience)
TTITLE3=Tim Mason - Don't Lough 2003
TTITLE4=Don Dee Jay - No. 1
TTITLE5=Dr. Möhrle and Alibee feat. Aura DJ Team - Rhythm Is Our Passion (Alibee 
TTITLE5=Remix)
TTITLE6=Rayden - The Sword Of Power (DJ Zemtec Remix)
TTITLE7=DJ Mirko Milano - Bamm Bamm
TTITLE8=DJ Shoko - Kick Some Ass
TTITLE9=Headstorm - Storm In Your Head (Club Mix)
TTITLE10=Riot 303 vs Observer - Summer Of '94
TTITLE11=DJ Darkzone - Who The Fuck Is Bou Bou
TTITLE12=DJ T.Urban - I Have A Dream
TTITLE13=Observer vs DJ Spacecase - Rock This Place
EXTD=
EXTT0=
EXTT1=
EXTT2=
EXTT3=
EXTT4=
EXTT5=
EXTT6=
EXTT7=
EXTT8=
EXTT9=
EXTT10=
EXTT11=
EXTT12=
EXTT13=
PLAYORDER=
